<?xml version="1.0" encoding="utf-8"?>
<!-- Generator: Adobe Illustrator 27.3.1, SVG Export Plug-In . SVG Version: 6.00 Build 0)  -->
<svg version="1.1" id="Layer_1" xmlns="http://www.w3.org/2000/svg" xmlns:xlink="http://www.w3.org/1999/xlink" x="0px" y="0px"
	 viewBox="0 0 2000 2000" style="enable-background:new 0 0 2000 2000;" xml:space="preserve">
<style type="text/css">
	.st0{fill:#FFFFFF;}
	.st1{fill:#2E7D32;}
	.st2{fill:#1565C0;}
	.st3{fill:#D32F2F;}
	.st4{fill:#F4C430;}
</style>
<g>
	<g>
		<g>
			<g>
				<g>
					<path d="M1691.91,1326.33h70.44v7.47v18.52v62.06h-22.51l-5.46-15.34c-6.17,10.34-18.68,15.02-29.88,17.45
						c-11.01,2.39-21.43,3.78-31.87-0.96c-15.81-7.19-27.73-20.85-34.3-36.77c-6.96-16.87-8.21-34.45-7.99-52.42
						c1.15-92.25,82.77-76.59,82.77-76.59c44.4,6.61,49.24,58.91,49.24,58.91h-31.39c-4.53-17.79-14.26-33.09-34.37-31.67
						c-13.39,0.95-23.43,9.54-29.15,21.29c-2.71,5.58-5.77,13.06-5.77,19.43c0,8.44-2.27,16.7-1.81,25.29
						c0.34,6.38,1.4,12.75,3.51,18.79c3.84,10.99,12.16,22.45,23.43,26.64c10.67,3.97,22.03,0.07,29.96-7.36
						c8.04-7.54,12.51-18.16,14.97-28.75h-39.81V1326.33z M391.99,1251.53h-31v162.87h21h10h70.39v-30.75h-70.39V1251.53z
						 M629.87,1414.26h31v-162.87h-31V1414.26z M1427.64,1414.37h31V1251.5h-31V1414.37z M1572.48,1341.98l-53.06-90.48h-14.24
						h-16.76v162.87h31v-94.65l53.06,94.65h9.86h21.14V1251.5h-31V1341.98z M977.32,1317.44H929v-65.94h-31v162.87h31v-65.94h48.32
						v65.94h31V1251.5h-31V1317.44z M1337.98,1251.5h-38.21v31h38.21v131.87h31V1282.5h40.79v-31h-40.79H1337.98z M1052.2,1251.5
						h-8.5v162.87h8.5h22.5h70.68v-31h-70.68v-34.94h61.63v-31h-61.63v-34.94h70.68v-31h-70.68H1052.2z M254.22,1251.53h-16.56
						v163.03h31v-66.72h57.33v-30.75h-57.33v-34.81h65.95v-30.75h-65.95H254.22z M568.18,1365.39c0,13.98-11.33,25.31-25.31,25.31
						c-14.93,0-27.03-12.1-27.03-27.03v-112.27h-31v119.05c0,26.74,21.68,48.42,48.42,48.42h17.24c26.74,0,48.42-21.68,48.42-48.42
						v-119.05h-30.75V1365.39z M806.42,1310.52v47.99c0,30.79-24.96,55.75-55.75,55.75h-59.49v-162.66h56.33
						C780.04,1251.61,806.42,1277.98,806.42,1310.52z M778.83,1318.57c0-20.16-16.34-36.5-36.5-36.5h-19.54v105.18h15.81
						c22.22,0,40.23-18.01,40.23-40.23V1318.57z M1251.28,1251.5l51.44,162.87h-32.47l-10.92-31h-56.04l-9.48,31h-31.9l52.02-162.87
						H1251.28z M1252.43,1357.65l-21.58-72.67l-20.09,72.67H1252.43z"/>
					<g>
						<g>
							<rect x="237.68" y="1507.77" width="391.47" height="4.01"/>
							<rect x="1370.85" y="1507.19" width="391.47" height="4.01"/>
						</g>
						<g>
							<path d="M692.17,1538.31c-3.99-1.21-7.15-2.83-9.48-4.83l3.57-8.01c2.27,1.8,5.06,3.27,8.37,4.4c3.3,1.14,6.62,1.7,9.95,1.7
								c4.13,0,7.21-0.66,9.24-1.98c2.03-1.32,3.05-3.07,3.05-5.23c0-1.58-0.57-2.89-1.71-3.93c-1.14-1.03-2.58-1.83-4.32-2.42
								c-1.74-0.58-4.13-1.24-7.14-1.98c-4.23-1-7.65-2.01-10.27-3.02c-2.62-1-4.86-2.58-6.74-4.72c-1.88-2.14-2.82-5.04-2.82-8.68
								c0-3.07,0.83-5.86,2.5-8.37c1.66-2.51,4.18-4.51,7.54-5.99c3.36-1.48,7.47-2.22,12.33-2.22c3.38,0,6.71,0.42,9.99,1.27
								c3.28,0.85,6.11,2.06,8.49,3.65l-3.25,8.01c-2.43-1.43-4.97-2.51-7.62-3.25c-2.64-0.74-5.21-1.11-7.69-1.11
								c-4.07,0-7.1,0.69-9.08,2.06c-1.98,1.38-2.98,3.2-2.98,5.47c0,1.59,0.57,2.89,1.71,3.89c1.14,1,2.58,1.8,4.32,2.38
								c1.74,0.58,4.12,1.24,7.14,1.98c4.12,0.95,7.51,1.94,10.15,2.97c2.64,1.03,4.9,2.61,6.78,4.72c1.88,2.12,2.81,4.97,2.81,8.57
								c0,3.07-0.83,5.84-2.5,8.33c-1.66,2.49-4.19,4.46-7.57,5.95c-3.39,1.48-7.51,2.22-12.38,2.22
								C700.3,1540.14,696.17,1539.53,692.17,1538.31z"/>
							<path d="M783.82,1530.7v8.65h-41.64v-55.52h40.53v8.65h-30.22v14.44h26.81v8.49h-26.81v15.31H783.82z"/>
							<path d="M836.57,1539.35l-11.34-16.26c-0.48,0.05-1.19,0.08-2.14,0.08h-12.53v16.18h-10.31v-55.52h22.84
								c4.81,0,9,0.79,12.57,2.38c3.57,1.58,6.31,3.86,8.21,6.82c1.9,2.96,2.85,6.48,2.85,10.55c0,4.18-1.02,7.77-3.05,10.79
								c-2.03,3.01-4.96,5.26-8.76,6.74l12.77,18.24H836.57z M832.84,1495.4c-2.33-1.9-5.74-2.86-10.23-2.86h-12.06v22.13h12.06
								c4.49,0,7.91-0.97,10.23-2.9c2.32-1.93,3.49-4.67,3.49-8.2C836.33,1500.03,835.17,1497.31,832.84,1495.4z"/>
							<path d="M913.9,1483.82l-24.19,55.52h-10.15l-24.27-55.52h11.18l18.48,42.83l18.64-42.83H913.9z"/>
							<path d="M924.69,1483.82H935v55.52h-10.31V1483.82z"/>
							<path d="M965.42,1536.45c-4.52-2.46-8.06-5.86-10.63-10.19c-2.57-4.34-3.85-9.23-3.85-14.68c0-5.44,1.3-10.34,3.89-14.67
								c2.59-4.34,6.15-7.74,10.67-10.19c4.52-2.46,9.58-3.69,15.19-3.69c4.55,0,8.7,0.79,12.45,2.38c3.76,1.58,6.93,3.88,9.52,6.9
								l-6.66,6.26c-4.02-4.33-8.96-6.5-14.83-6.5c-3.81,0-7.22,0.83-10.23,2.5c-3.01,1.67-5.37,3.98-7.06,6.94
								c-1.69,2.96-2.54,6.32-2.54,10.07c0,3.76,0.85,7.11,2.54,10.07c1.69,2.96,4.05,5.28,7.06,6.94c3.01,1.67,6.42,2.5,10.23,2.5
								c5.87,0,10.81-2.2,14.83-6.58l6.66,6.35c-2.59,3.01-5.78,5.31-9.56,6.9c-3.78,1.58-7.94,2.38-12.49,2.38
								C975,1540.14,969.94,1538.91,965.42,1536.45z"/>
							<path d="M1059.13,1530.7v8.65h-41.64v-55.52h40.53v8.65h-30.22v14.44h26.81v8.49h-26.81v15.31H1059.13z"/>
							<path d="M1080.35,1538.31c-3.99-1.21-7.15-2.83-9.48-4.83l3.57-8.01c2.27,1.8,5.06,3.27,8.37,4.4c3.3,1.14,6.62,1.7,9.95,1.7
								c4.13,0,7.21-0.66,9.24-1.98c2.03-1.32,3.05-3.07,3.05-5.23c0-1.58-0.57-2.89-1.71-3.93c-1.14-1.03-2.58-1.83-4.32-2.42
								c-1.74-0.58-4.13-1.24-7.14-1.98c-4.23-1-7.65-2.01-10.27-3.02c-2.62-1-4.86-2.58-6.74-4.72c-1.88-2.14-2.82-5.04-2.82-8.68
								c0-3.07,0.83-5.86,2.5-8.37c1.66-2.51,4.18-4.51,7.54-5.99c3.36-1.48,7.47-2.22,12.33-2.22c3.38,0,6.71,0.42,9.99,1.27
								c3.28,0.85,6.11,2.06,8.49,3.65l-3.25,8.01c-2.43-1.43-4.97-2.51-7.62-3.25s-5.21-1.11-7.69-1.11c-4.07,0-7.1,0.69-9.08,2.06
								c-1.98,1.38-2.98,3.2-2.98,5.47c0,1.59,0.57,2.89,1.71,3.89c1.14,1,2.58,1.8,4.32,2.38c1.74,0.58,4.12,1.24,7.14,1.98
								c4.12,0.95,7.51,1.94,10.15,2.97c2.64,1.03,4.9,2.61,6.78,4.72c1.88,2.12,2.81,4.97,2.81,8.57c0,3.07-0.83,5.84-2.5,8.33
								c-1.66,2.49-4.19,4.46-7.57,5.95c-3.39,1.48-7.51,2.22-12.38,2.22C1088.48,1540.14,1084.34,1539.53,1080.35,1538.31z"/>
							<path d="M1157.16,1483.82h10.31v46.8h29.03v8.72h-39.34V1483.82z"/>
							<path d="M1215.7,1492.55h-18.4v-8.72h47.11v8.72h-18.4v46.8h-10.31V1492.55z"/>
							<path d="M1257.1,1483.82h24.27c5.92,0,11.18,1.15,15.78,3.45c4.6,2.3,8.17,5.55,10.71,9.75c2.54,4.21,3.81,9.06,3.81,14.56
								c0,5.5-1.27,10.35-3.81,14.56c-2.54,4.2-6.11,7.46-10.71,9.76c-4.6,2.3-9.86,3.45-15.78,3.45h-24.27V1483.82z
								 M1280.9,1530.62c4.07,0,7.65-0.78,10.75-2.34s5.47-3.78,7.14-6.66c1.67-2.88,2.5-6.23,2.5-10.03s-0.83-7.15-2.5-10.03
								c-1.66-2.88-4.05-5.1-7.14-6.66s-6.68-2.34-10.75-2.34h-13.48v38.08H1280.9z"/>
						</g>
					</g>
				</g>
			</g>
			<g>
				<g>
					<g>
						<path class="st1" d="M789.32,1042.88c4.95,11.52,10.5,22.75,17.21,33.36c1.28,2.02,2.26,4.91,5.55,4.01
							c1.87-2.32,0.61-4.3-0.06-6.17c-12.28-34.4-15.65-70.05-15.36-106.3c0.12-15.87,3.2-31.06,7.82-46.09
							c9.89-32.18,25.68-61.6,42.55-90.46c19.63-33.59,41.56-65.71,63.63-97.73c20.43-29.64,41.44-58.92,59.93-89.84
							c10.96-18.33,22.27-36.65,26.02-58.27c0.33-1.92,1.31-3.41,3.63-3.49c2.46,0.51,3.07,2.49,3.44,4.61
							c3.33,19.18,12.88,35.77,22.37,52.26c17.58,30.56,37.91,59.37,57.79,88.45c30.19,44.16,60.69,88.1,85.45,135.69
							c10.37,19.94,19.99,40.19,26.43,61.79c3.88,13,6.69,26.17,7.67,39.85c0.77,10.76-0.39,21.37-0.43,32.04
							c-0.05,13.06-1.71,26.02-3.95,38.88c-2.41,13.89-5.28,27.67-10.3,40.92c-0.93,2.46-2.57,5.27,0.58,7.54
							c3.55-1.28,4.71-4.36,6.29-6.97c12.85-21.42,21.97-44.34,27.74-68.66c6.7-28.24,7.03-56.91,6.02-85.62
							c-0.79-22.59-6.15-44.41-13.55-65.69c-13.97-40.18-34.44-77.16-57.14-112.9c-24.05-37.88-48.81-75.31-73.4-112.86
							c-20.07-30.64-37.01-62.97-52.32-96.18c-10.16-22.05-19.14-44.59-27.17-67.51c-1.09-3.11-1.7-6.73-5.6-7.67
							c-3.93,0.43-4.2,3.74-5.18,6.28c-4.92,12.64-9.47,25.43-14.61,37.99c-17.94,43.82-39.41,85.84-65.14,125.6
							c-18.71,28.92-37.97,57.47-56.87,86.26c-25.37,38.65-49.83,77.82-67.25,120.88c-13.14,32.47-21.1,65.92-20.83,101.27
							C770.54,974.25,774.95,1009.42,789.32,1042.88z"/>
						<path class="st2" d="M1148.39,887.88c-17.97-37.58-41.45-71.76-65.23-105.75c-16.45-23.51-33.53-46.58-49.01-70.75
							c-10.13-15.82-19.99-31.84-26.81-49.44c-2.43-6.27-4.22-12.78-6.3-19.19c-0.47-0.06-0.93-0.12-1.4-0.17
							c-1.93,5.91-3.63,11.9-5.83,17.71c-8.36,22.15-21.09,41.92-34.34,61.3c-17.51,25.62-35.74,50.76-53.38,76.3
							c-20.62,29.85-40.41,60.21-55.88,93.16c-16.1,34.28-25.84,69.71-22.23,108.2c3.49,37.21,12.97,72.35,32.99,104.16
							c9.69,15.4,25.9,40.29,56.67,58.19c18.42,10.72,35.78,15.26,42.99,17.1c21.59,5.5,39.59,5.79,49.67,5.47
							c10.12-0.32,23.77-0.76,40.47-6.04c28.42-8.98,46.66-25.93,58.54-37.26c26.32-25.11,43.7-55.66,53.63-90.46
							c9.11-31.95,12.86-64.43,7.46-97.51C1166.68,930.03,1158.33,908.67,1148.39,887.88z"/>
					</g>
				</g>
			</g>
		</g>
		<path class="st3" d="M1086.1,933.34c-18.26-28.38-40.4-54.29-61-81.13c-9.65-12.57-19.1-25.58-24.85-40.35
			c-5.75-14.77-7.49-31.69-1.6-46.41c-24.79,20.88-39.08,53.65-37.51,86.02c0.91,18.66,6.72,36.74,8.75,55.3
			c2.03,18.57-0.48,39.1-13.47,52.52c-7-16.39-8.63-35.03-4.57-52.39c-0.57,2.44-20.9,11.69-24.06,14.04
			c-8.3,6.17-15.86,13.34-22.5,21.26c-13.28,15.84-22.96,34.79-27.58,54.96c-9.85,42.95,4.32,91.01,31.85,124.72
			c16.14,19.77,37.64,35.63,62.18,42.64c21.89,6.26,45.65,5.26,67.27-1.91c39.96-13.24,71.91-48.32,81.38-89.34
			c9.35-40.53-2.44-83.45-22.37-119.97C1094.27,946.49,1090.29,939.85,1086.1,933.34z"/>
	</g>
	<path class="st4" d="M998.8,973.72c0.36,0.87,0.6,2.28,1,3.85c0.67,2.64,0.99,6.13,1.03,9.78c0.05,5.25-0.58,10.48-1.74,15.6
		l-1.45,6.41c-5.04,18.15-13.23,34.77-25.17,48.9c-0.07,0.08-0.14,0.17-0.21,0.25c-1.03-1.73-2.04-3.84-2.75-6.35
		c-2.63-9.19,0.48-17.29,1.93-20.48c-3.26,3.33-7.71,8.46-11.7,15.48c-1.21,2.14-23.14,41.78-1.68,74.51
		c10.55,16.09,26.08,23.1,34.05,25.94c3.14-17.6,3.53-31.16,3.27-40.51c-0.13-4.73-0.43-8.26,1.01-8.8
		c3.32-1.25,14.82,13.93,16.99,31.29c0.93,7.43-0.04,13.73-1.07,18.02c2.66-0.36,35.84-5.47,50.72-36.22
		c12.33-25.48,2.89-49.58,1.31-53.44c-0.08,2.49-0.64,10.4-6.3,16.74c-1.6,1.79-5.78,6.47-11.88,7.02c-0.17,0.02-0.31,0.02-0.4,0.03
		c2.47-8.37,4.2-18.52,3.46-29.92C1046.24,1005.85,1005.7,978.26,998.8,973.72z"/>
</g>
</svg>
